<svg xmlns="http://www.w3.org/2000/svg" viewBox="0 0 148 148">
  <defs>
    <style>
      .cls-1 {
        fill: #fff;
      }

      .cls-2 {
        fill: #369;
      }
    </style>
  </defs>
  <g id="Group_22" data-name="Group 22" transform="translate(-4500 -2885)">
    <circle id="Ellipse_8" data-name="Ellipse 8" class="cls-1" cx="74" cy="74" r="74" transform="translate(4500 2885)"/>
    <g id="Group_19" data-name="Group 19" transform="translate(4529 2920.001)">
      <path id="Path_53" data-name="Path 53" class="cls-2" d="M.019,33.932c0-7.732.019-15.463-.019-23.2A2.248,2.248,0,0,1,2.473,8.271c6.319.051,12.638.021,18.956.021.9,0,.935.045.738.937A3.059,3.059,0,0,0,22.1,9.7c-.07,1.151-.068,1.151-1.2,1.151H4c-.959,0-.982.021-.982,1.012q0,17.943,0,35.884c0,2.612.068,5.225.062,7.837,0,.568.155.725.729.723,5.128-.021,10.257-.013,15.385-.013q15.283,0,30.565,0c1.41,0,1.158-.146,1.183,1.207.006.273,0,.545,0,.819,0,.878,0,.878-.92.878-1.648,0-3.3,0-4.945,0-.17,0-.4-.1-.5.095s.1.329.191.477q2.331,3.616,4.667,7.233c.106.165.331.335.238.528-.1.21-.369.1-.56.1q-13.634.009-27.268,0c-.176,0-.439.028-.513-.068-.148-.195.091-.363.195-.524q2.294-3.562,4.593-7.117c.129-.2.418-.4.273-.643-.117-.2-.424-.081-.643-.081q-11.945-.006-23.9,0C.56,59.2.021,58.659.021,57.332q0-10.233,0-20.467Q.019,35.4.019,33.932Z" transform="translate(0 7.382)"/>
      <path id="Path_54" data-name="Path 54" class="cls-2" d="M46.429,12.734a37.265,37.265,0,0,1,11.3,1.722,15.4,15.4,0,0,1,5.339,2.852c1.217,1.058,2.562,3.051,1.561,5.074a7.075,7.075,0,0,1-2.375,2.672A21.29,21.29,0,0,1,54.222,28.2a38.166,38.166,0,0,1-8.173.761,34.506,34.506,0,0,1-10.465-1.535,14.474,14.474,0,0,1-6.063-3.314c-2.216-2.227-2.1-4.811.335-6.843a16.144,16.144,0,0,1,5.414-2.841A37.4,37.4,0,0,1,46.429,12.734Z" transform="translate(24.935 11.365)"/>
      <path id="Path_55" data-name="Path 55" class="cls-2" d="M64.916,37.269c0,.659-.021,1.319,0,1.978a4.834,4.834,0,0,1-1.834,3.864,15.622,15.622,0,0,1-6.3,3.2A36.666,36.666,0,0,1,44.59,47.7a36.26,36.26,0,0,1-8.16-1.293A18.866,18.866,0,0,1,30.6,43.795c-1.61-1.149-2.742-2.566-2.619-4.712.081-1.429.013-2.865.019-4.3,0-.168-.076-.4.15-.477s.322.121.447.246a17.052,17.052,0,0,0,7.748,4.029A37.658,37.658,0,0,0,47.805,39.83a36.567,36.567,0,0,0,8.251-1.156,22.629,22.629,0,0,0,6.12-2.492A9.767,9.767,0,0,0,64.3,34.472c.127-.14.263-.384.494-.282s.117.365.119.556C64.924,35.587,64.916,36.427,64.916,37.269Z" transform="translate(24.959 30.492)"/>
      <path id="Path_56" data-name="Path 56" class="cls-2" d="M47.036,26.985a4.036,4.036,0,0,1-4.084-4.442c.047-.441-.1-.543-.467-.634q-4.987-1.221-9.966-2.466c-1.107-.276-2.214-.554-3.312-.861-.539-.151-.857-.136-1.071.517a4.107,4.107,0,0,1-4.627,2.422.832.832,0,0,0-1.037.354q-5.578,7.363-11.2,14.7a1.233,1.233,0,0,0-.161,1.665,3.6,3.6,0,0,1-.221,4.22,4,4,0,0,1-3.9,1.741,4.2,4.2,0,0,1-3.63-4.387,4.114,4.114,0,0,1,4.5-3.726c1.084.168,1.463-.265,1.989-.965q5.288-7.031,10.654-14a1.32,1.32,0,0,0,.184-1.764,4.04,4.04,0,0,1,1.531-5.4,4.112,4.112,0,0,1,5.613,1.425,2.262,2.262,0,0,0,1.586,1.2q5.987,1.448,11.962,2.935c.708.174,1.423.335,2.11.573.424.148.666-.083.916-.288a4.132,4.132,0,0,1,2.977-.99,2.593,2.593,0,0,1,1.056.259.655.655,0,0,0,.941-.231q4.295-5.6,8.6-11.192c.112-.144.223-.288.341-.428a2.394,2.394,0,0,0,.706-2.265C58.483,2.159,60.47.387,62.913.016c1.232-.187,3.253,1.151,3.832,2.367A4.088,4.088,0,0,1,64.3,8.125a3.88,3.88,0,0,1-3.064-.237.671.671,0,0,0-1.026.22q-4.178,5.476-8.4,10.919a2.788,2.788,0,0,1-.254.322,2.005,2.005,0,0,0-.532,2.54C51.93,24.086,49.854,27.18,47.036,26.985ZM63.023,6.364a2.184,2.184,0,0,0,2.2-2.137,2.2,2.2,0,1,0-4.389.1A2.271,2.271,0,0,0,63.023,6.364ZM47.04,20.85a2.093,2.093,0,0,0-2.1,2.135,2.186,2.186,0,0,0,2.125,2.08,2.148,2.148,0,0,0,2.125-2.138A2.045,2.045,0,0,0,47.04,20.85ZM26.416,17.54a2.035,2.035,0,0,0-2.053-2.152,2.24,2.24,0,0,0-2.193,2.089A2.224,2.224,0,0,0,24.3,19.624C25.246,19.669,26.582,18.729,26.416,17.54ZM9.641,40.13a2.126,2.126,0,1,0-4.25.1,2.173,2.173,0,0,0,2.137,2.051A2.185,2.185,0,0,0,9.641,40.13Z" transform="translate(2.991 0)"/>
      <path id="Path_57" data-name="Path 57" class="cls-2" d="M65.061,22.306a10.745,10.745,0,0,0,.006,1.158c.293,2.674-.988,4.5-3.145,5.887a21.006,21.006,0,0,1-6.629,2.661A36.55,36.55,0,0,1,45.711,33,31.953,31.953,0,0,1,32.8,30.324a11.093,11.093,0,0,1-3.736-2.7,4.813,4.813,0,0,1-1.16-3.2c-.019-1.614-.008-3.228-.006-4.841,0-.178-.057-.4.136-.5.246-.119.365.127.5.263a15.964,15.964,0,0,0,6.964,3.9,37.39,37.39,0,0,0,13.137,1.48,29.949,29.949,0,0,0,12.3-2.867,11.447,11.447,0,0,0,3.427-2.451c.146-.161.291-.441.537-.358.312.108.155.435.159.662C65.071,20.578,65.061,21.441,65.061,22.306ZM44.392,29.989a1.27,1.27,0,1,0-.045-2.524,29.5,29.5,0,0,1-4.7-.4c-1.5-.274-2.975-.659-4.457-1.014a1.017,1.017,0,0,0-1.152,1.508A1.933,1.933,0,0,0,35.237,28.6,28.711,28.711,0,0,0,44.392,29.989Zm4.51-2.8a1.616,1.616,0,0,0-1.656,1.554A1.5,1.5,0,0,0,48.7,30.307a1.884,1.884,0,0,0,1.754-1.682A1.584,1.584,0,0,0,48.9,27.187Zm6.239.863A1.405,1.405,0,0,0,53.709,26.7a1.966,1.966,0,0,0-1.775,1.773,1.458,1.458,0,0,0,1.389,1.419A2.134,2.134,0,0,0,55.141,28.05Zm1.3-.407a1.2,1.2,0,0,0,1.211,1.281,2.193,2.193,0,0,0,1.892-2,1.194,1.194,0,0,0-1.19-1.219A2.033,2.033,0,0,0,56.439,27.643Z" transform="translate(24.891 16.991)"/>
      <path id="Path_58" data-name="Path 58" class="cls-2" d="M65.065,32.333c0,.522-.044,1.05.008,1.567.22,2.237-.95,3.773-2.617,5A20.371,20.371,0,0,1,54.6,42.088a38.8,38.8,0,0,1-10.293.757,28.727,28.727,0,0,1-12.093-2.873,9.542,9.542,0,0,1-3.374-2.718,4.586,4.586,0,0,1-.929-2.723c-.034-1.635-.013-3.274-.011-4.909,0-.17-.081-.4.136-.483.2-.072.331.125.452.25,2.237,2.313,5.11,3.418,8.13,4.26a37.25,37.25,0,0,0,11.2,1.2,31.773,31.773,0,0,0,12.761-2.723,12.349,12.349,0,0,0,3.7-2.532c.182-.189.352-.554.625-.45.329.127.148.522.155.8C65.078,30.741,65.065,31.538,65.065,32.333ZM43.483,39.479c.274,0,.549,0,.825,0a1.287,1.287,0,0,0,1.162-.825,1.063,1.063,0,0,0-.2-1.141,1.629,1.629,0,0,0-1.442-.628,25.21,25.21,0,0,1-6.372-.772c-.787-.231-1.593-.4-2.4-.57s-1.527.356-1.385,1.037A1.837,1.837,0,0,0,34.99,38.1,32.123,32.123,0,0,0,43.483,39.479Zm3.5-1.2a1.519,1.519,0,0,0,1.552,1.472A1.752,1.752,0,0,0,50.2,38.091a1.608,1.608,0,0,0-1.544-1.44A1.671,1.671,0,0,0,46.981,38.275ZM53.525,36.2a1.966,1.966,0,0,0-1.858,1.754A1.458,1.458,0,0,0,53.1,39.316,1.917,1.917,0,0,0,54.878,37.5,1.276,1.276,0,0,0,53.525,36.2Zm2.651.9A1.232,1.232,0,0,0,57.4,38.364,2.186,2.186,0,0,0,59.3,36.383a1.22,1.22,0,0,0-1.19-1.236A2.168,2.168,0,0,0,56.176,37.1Z" transform="translate(24.888 25.993)"/>
      <path id="Path_59" data-name="Path 59" class="cls-2" d="M65.063,27.4c0,.613-.03,1.23.006,1.841A5.024,5.024,0,0,1,62.9,33.563a17.934,17.934,0,0,1-6.824,3.187,36.788,36.788,0,0,1-10.1,1.179,33.431,33.431,0,0,1-11.618-1.97,12.228,12.228,0,0,1-5.34-3.446,4.933,4.933,0,0,1-1.115-3.21c-.017-1.546-.008-3.09-.006-4.636,0-.195-.078-.449.165-.541.2-.076.325.136.441.263a13.826,13.826,0,0,0,5.564,3.474,34.616,34.616,0,0,0,9.9,1.955A38.679,38.679,0,0,0,55.4,28.911a18.54,18.54,0,0,0,8.419-3.874c.254-.225.479-.483.73-.71.108-.1.189-.3.384-.218s.129.273.131.424c0,.954,0,1.909,0,2.863C65.067,27.4,65.065,27.4,65.063,27.4ZM43.094,34.689c.3,0,.594,0,.891,0,.937.006,1.527-.428,1.567-1.151a1.441,1.441,0,0,0-1.533-1.408,28.589,28.589,0,0,1-7.7-1.037,5.79,5.79,0,0,0-1.663-.365.975.975,0,0,0-.916,1.319,1.9,1.9,0,0,0,1.416,1.342A30.175,30.175,0,0,0,43.094,34.689Zm5.4.274a1.71,1.71,0,0,0,1.709-1.6,1.656,1.656,0,0,0-1.506-1.5,1.718,1.718,0,0,0-1.711,1.616A1.459,1.459,0,0,0,48.491,34.963Zm4.625-.418a1.935,1.935,0,0,0,1.76-1.832A1.293,1.293,0,0,0,53.5,31.426,1.907,1.907,0,0,0,51.68,33.2,1.412,1.412,0,0,0,53.116,34.545Zm4.305-.956a2.122,2.122,0,0,0,1.868-2.2,1.207,1.207,0,0,0-1.4-1,2.3,2.3,0,0,0-1.654,1.491A1.254,1.254,0,0,0,57.421,33.589Z" transform="translate(24.888 21.5)"/>
      <path id="Path_60" data-name="Path 60" class="cls-2" d="M9.552,34.04c.712.254,1.236-.237,1.785-.814,2.984-3.136,5.993-6.249,8.993-9.373.71-.74,1.393-1.506,2.127-2.222a.912.912,0,0,0,.231-1.154,4.1,4.1,0,1,1,7.92-1.771,3.727,3.727,0,0,1-.414,2.176c-.237.378-.013.634.231.893q2.106,2.24,4.207,4.487c.343.365.676.74,1,1.117a.537.537,0,0,0,.876.061,3.9,3.9,0,0,1,4.457-.594.677.677,0,0,0,.808-.119q2.387-1.993,4.8-3.959c.165-.136.3-.414.566-.288s.1.4.136.606a2.684,2.684,0,0,1-1.363,2.786c-.91.636-1.694,1.451-2.564,2.148a.864.864,0,0,0-.3,1.128A4.112,4.112,0,1,1,35.066,30.5a1.634,1.634,0,0,0-.475-1.274Q31.826,26.3,29.127,23.3a1.206,1.206,0,0,0-1.5-.346,3.432,3.432,0,0,1-2.608-.142.88.88,0,0,0-1.156.216q-5.595,5.859-11.215,11.7a.69.69,0,0,0-.026,1.056,3.966,3.966,0,0,1-.78,5.482,4.179,4.179,0,0,1-5.4-.129,4.027,4.027,0,0,1-1.014-4.618A4.1,4.1,0,0,1,9.552,34.04ZM11.38,38.1a2.2,2.2,0,0,0-2.053-2.137,2.171,2.171,0,0,0-2.2,2.121,2.052,2.052,0,0,0,2.114,2.1A2.083,2.083,0,0,0,11.38,38.1ZM26.537,21.085a2.179,2.179,0,0,0,2.142-2.049,2.3,2.3,0,0,0-2.135-2.176A2.163,2.163,0,0,0,24.421,19,2.01,2.01,0,0,0,26.537,21.085Zm12.641,7.329a2.111,2.111,0,1,0,.049,4.222,2.111,2.111,0,1,0-.049-4.222Z" transform="translate(4.541 13.29)"/>
      <path id="Path_61" data-name="Path 61" class="cls-2" d="M37.465,8.294c1.6,0,3.2-.006,4.8,0a1.9,1.9,0,0,1,1.955,1.925c.015,1.319-.006,2.636.011,3.955.008.513-.184.763-.721.749-.572-.013-1.145-.011-1.716.021-.522.03-.679-.195-.662-.687.028-.863-.021-1.728.019-2.591.028-.621-.182-.833-.823-.827-3.158.028-6.317.015-9.473.008-.233,0-.543.134-.687-.15s.161-.437.3-.626a5.317,5.317,0,0,0,.585-.751,1.947,1.947,0,0,1,2.148-1.048C34.624,8.345,36.045,8.294,37.465,8.294Z" transform="translate(26.891 7.378)"/>
      <path id="Path_62" data-name="Path 62" class="cls-2" d="M17.986,8.445a1.739,1.739,0,0,1,1-.153q8.78-.006,17.562,0c.212,0,.513-.117.607.155.076.22-.125.416-.278.589a.577.577,0,0,0-.091.1,2.256,2.256,0,0,1-2.767,1.293,2.531,2.531,0,0,0-1.6.229,4.2,4.2,0,0,1-1.275.208c-3.145.3-6.1-.6-9.086-1.355-1.17-.3-2.341-.581-3.51-.876C18.395,8.6,18.253,8.538,17.986,8.445Z" transform="translate(16.051 7.38)"/>
    </g>
  </g>
</svg>
