<svg xmlns="http://www.w3.org/2000/svg" viewBox="0 0 148 148">
  <defs>
    <style>
      .cls-1 {
        fill: #fff;
      }

      .cls-2 {
        fill: #369;
      }
    </style>
  </defs>
  <g id="Group_24" data-name="Group 24" transform="translate(-4500 -3395)">
    <circle id="Ellipse_6" data-name="Ellipse 6" class="cls-1" cx="74" cy="74" r="74" transform="translate(4500 3395)"/>
    <g id="B3QUhA.tif_1_" transform="translate(4529 3435)">
      <g id="Group_11" data-name="Group 11">
        <g id="w7ez30.tif_1_">
          <g id="Group_10" data-name="Group 10">
            <path id="Path_72" data-name="Path 72" class="cls-2" d="M87.608,68.661H68.864c-1.788-.691-2.324-2.034-2.284-3.864.081-3.739.011-7.481.038-11.222,0-.583-.153-.739-.739-.735-4.32.025-8.64.011-12.96.017-.208,0-.445-.083-.657.152C54.492,56.517,56.727,60.03,59,63.6H22.928c.142-.246.241-.436.356-.616Q25.04,60.227,26.8,57.47c.877-1.375,1.748-2.754,2.631-4.125.21-.328.244-.521-.242-.492-.176.009-.354,0-.532,0q-11.764,0-23.527,0a6.014,6.014,0,0,1-1.583-.127A4.654,4.654,0,0,1,0,47.85Q0,26.464,0,5.076C0,1.9,1.932,0,5.146,0H76.723c3.248,0,5.157,1.9,5.157,5.129q0,10.3-.011,20.595c0,.549.146.708.7.7,1.439-.032,2.879-.009,4.318.011a2.958,2.958,0,0,1,2.943,1.956c.04.1.044.22.169.263V66.28A3.309,3.309,0,0,1,87.608,68.661ZM41.078,3.311q-18.21,0-36.42-.013c-.612,0-.775.167-.775.769q.023,22.344,0,44.689c0,.652.2.794.822.794q30.571-.023,61.144,0c.6,0,.773-.153.771-.761-.023-6.337-.015-12.674-.013-19.011,0-2.178,1.174-3.339,3.367-3.347,2.525-.008,5.051-.034,7.576-.008.6.006.771-.15.769-.759-.023-7.172-.013-14.347-.015-21.519,0-.831,0-.833-.871-.833ZM89.345,48.034c0-5.545-.047-11.091.025-16.636.027-2.047-1.085-3.475-3.432-3.367a1.745,1.745,0,0,1-.4,0,2.406,2.406,0,0,0-2.926,1.487c-.182.4-.506.472-.924.468-1.706-.021-3.42-.112-5.116.023a2.556,2.556,0,0,1-2.919-1.515.81.81,0,0,0-.866-.466c-.775.027-1.551,0-2.326.009-2.163.015-3.254,1.045-3.258,3.2q-.023,16.835,0,33.669c0,2.07,1.1,3.112,3.182,3.114q7.875,0,15.752,0c2.153,0,3.206-1.055,3.206-3.208Q89.346,56.417,89.345,48.034Z"/>
            <path id="Path_73" data-name="Path 73" class="cls-2" d="M16.949,16.936a8.2,8.2,0,0,1,7.557-8.4,10.435,10.435,0,0,1,4.964.581c4.259,1.638,6.259,6.11,4.782,10.67a22.513,22.513,0,0,1-2.261,4.47,12.212,12.212,0,0,0-1.773,4.169c-.045.271.163.733-.242.792a6.534,6.534,0,0,1-1.782-.023c-.22-.03-.1-.388-.087-.595a10.122,10.122,0,0,1,1.333-4.182c.665-1.193,1.383-2.356,2.036-3.555a8.184,8.184,0,0,0,1.1-3.765,6.161,6.161,0,0,0-5.517-6.439,8.146,8.146,0,0,0-3.294.18,6.2,6.2,0,0,0-4.434,7.941,13.739,13.739,0,0,0,1.525,3.284A29.431,29.431,0,0,1,22.8,25.6a9.672,9.672,0,0,1,.782,3.189c.019.324-.042.5-.422.473a4.8,4.8,0,0,1-1.447-.049c-.506-.21-.241-.856-.362-1.3a12.471,12.471,0,0,0-1.208-2.848c-.672-1.189-1.383-2.358-2.017-3.564A9.782,9.782,0,0,1,16.949,16.936Z" transform="translate(15.151 7.566)"/>
            <path id="Path_74" data-name="Path 74" class="cls-2" d="M23.353,22.943c-.907,0-1.814-.008-2.72,0-.547.006-.939-.214-.951-.775s.377-.8.92-.8q2.787,0,5.574,0c.53,0,.922.214.909.807s-.413.771-.945.769C25.211,22.939,24.281,22.943,23.353,22.943Z" transform="translate(17.594 19.097)"/>
            <path id="Path_75" data-name="Path 75" class="cls-2" d="M23.489,21.578c-.972,0-1.943-.008-2.913,0-.542.006-.911-.2-.97-.758-.049-.491.339-.807.973-.809,1.92-.006,3.841,0,5.761-.006.538,0,.917.169.958.75.038.513-.314.809-.962.814C25.388,21.586,24.437,21.578,23.489,21.578Z" transform="translate(17.523 17.888)"/>
            <path id="Path_76" data-name="Path 76" class="cls-2" d="M15.076,18.795c-.294,0-.314-.273-.369-.455-.15-.5-.655-.892-.491-1.485.019-.07.186-.1.286-.146.985-.441,1.975-.867,2.953-1.328.335-.157.479-.1.642.237.723,1.509.735,1.5-.773,2.174l-1.869.837C15.336,18.685,15.214,18.734,15.076,18.795Z" transform="translate(12.679 13.675)"/>
            <path id="Path_77" data-name="Path 77" class="cls-2" d="M27.694,12.277c-.233-.044-.284-.233-.384-.367-.966-1.3-.964-1.3.341-2.223.612-.434,1.229-.858,1.828-1.307.235-.176.384-.163.523.087a1.011,1.011,0,0,0,.076.108c.991,1.314.991,1.314-.35,2.269q-.861.614-1.723,1.223C27.9,12.142,27.787,12.214,27.694,12.277Z" transform="translate(23.8 7.384)"/>
            <path id="Path_78" data-name="Path 78" class="cls-2" d="M15.706,12.223a12.012,12.012,0,0,0,1.455-.011c.627-.078.729.189.716.739-.03,1.4-.006,1.4-1.432,1.4-.839,0-1.678-.019-2.517.006-.638.019-.473-.466-.409-.725.117-.47-.481-1.212.4-1.384A9.517,9.517,0,0,1,15.706,12.223Z" transform="translate(12.004 10.896)"/>
            <path id="Path_79" data-name="Path 79" class="cls-2" d="M29.657,12.21c.6,0,1.2.015,1.79-.006.347-.011.447.112.462.453.08,1.678.091,1.678-1.612,1.678-.775,0-1.547-.015-2.322.006-.347.009-.441-.11-.455-.453-.062-1.68-.074-1.68,1.6-1.68C29.3,12.21,29.48,12.21,29.657,12.21Z" transform="translate(24.584 10.909)"/>
            <path id="Path_80" data-name="Path 80" class="cls-2" d="M18.887,10.649c-.386.5-.775,1.032-1.2,1.534-.083.1-.229-.08-.33-.15-.919-.648-1.83-1.3-2.752-1.947-.248-.172-.284-.3-.106-.578.953-1.472.943-1.477,2.364-.456.572.411,1.15.814,1.722,1.227C18.705,10.365,18.86,10.427,18.887,10.649Z" transform="translate(12.865 7.453)"/>
            <path id="Path_81" data-name="Path 81" class="cls-2" d="M27.694,15.386l1.731.7.369.146c1.642.655,1.633.652.864,2.229-.144.294-.267.324-.551.2-1.015-.426-2.04-.828-3.064-1.231-.235-.093-.386-.193-.261-.481.2-.462.383-.932.578-1.4C27.408,15.435,27.469,15.306,27.694,15.386Z" transform="translate(23.901 13.732)"/>
            <path id="Path_82" data-name="Path 82" class="cls-2" d="M19.21,10.143c-.237.042-.286-.121-.358-.252C18.339,8.946,17.829,8,17.31,7.057c-.121-.22-.095-.366.142-.464a.561.561,0,0,0,.059-.028C19,5.648,19,5.648,19.827,7.182c.3.561.595,1.125.913,1.676.152.261.148.419-.153.561C20.11,9.645,19.651,9.908,19.21,10.143Z" transform="translate(15.411 5.31)"/>
            <path id="Path_83" data-name="Path 83" class="cls-2" d="M25.791,10.2c-.5-.284-1.068-.578-1.6-.917-.152-.1.021-.278.091-.405.487-.907.989-1.807,1.458-2.723.163-.316.311-.32.608-.17,1.528.767,1.532.758.727,2.237-.3.559-.6,1.119-.911,1.674C26.094,10.023,26.06,10.2,25.791,10.2Z" transform="translate(21.569 5.267)"/>
            <path id="Path_84" data-name="Path 84" class="cls-2" d="M21.111,7.273c0-.506.017-1.011-.006-1.515-.015-.348.121-.436.462-.447,1.688-.061,1.686-.072,1.686,1.61,0,.527-.028,1.057.008,1.581.032.468-.081.653-.608.648-1.544-.017-1.544.008-1.544-1.545C21.111,7.493,21.111,7.383,21.111,7.273Z" transform="translate(18.866 4.731)"/>
            <path id="Path_85" data-name="Path 85" class="cls-2" d="M20.172,22.716c1.835,0,3.578,0,5.322,0a.609.609,0,0,1,.174.059C24.024,24.974,21.867,25.046,20.172,22.716Z" transform="translate(18.033 20.307)"/>
            <path id="Path_86" data-name="Path 86" class="cls-2" d="M43.753,21.367a4.643,4.643,0,0,1,4.521,6.553,16.731,16.731,0,0,1-1.246,2.326,5.625,5.625,0,0,0-.862,2.193c-.066.608-.54.277-.828.33-.4.076-.335-.241-.316-.475a5.994,5.994,0,0,1,.879-2.466,22.778,22.778,0,0,0,1.191-2.133,3.542,3.542,0,0,0-.934-4.411,4.221,4.221,0,0,0-4.955.1,3.476,3.476,0,0,0-.983,3.843,10.524,10.524,0,0,0,1.117,2.167,7.113,7.113,0,0,1,1.136,2.86c.025.22.167.551-.252.511-.3-.028-.786.271-.869-.277a9.822,9.822,0,0,0-1.536-3.335,5.834,5.834,0,0,1-.953-3.7A4.607,4.607,0,0,1,43.753,21.367Z" transform="translate(34.709 19.101)"/>
            <path id="Path_87" data-name="Path 87" class="cls-2" d="M42.377,28.557c-.509,0-1.019,0-1.527,0-.3,0-.542-.1-.54-.436,0-.3.222-.409.5-.409,1.085,0,2.169,0,3.254,0,.278,0,.483.138.475.434s-.222.405-.5.405Q43.206,28.555,42.377,28.557Z" transform="translate(36.036 24.773)"/>
            <path id="Path_88" data-name="Path 88" class="cls-2" d="M42.34,29.305H40.883c-.3,0-.538-.085-.53-.436.008-.3.223-.415.492-.415q1.554-.009,3.11,0a.425.425,0,0,1,.472.443c-.008.286-.218.407-.5.405C43.4,29.3,42.87,29.305,42.34,29.305Z" transform="translate(36.073 25.433)"/>
            <path id="Path_89" data-name="Path 89" class="cls-2" d="M45.922,24.608h-.528c-.646,0-.909-.394-.693-.992.074-.2.222-.186.367-.187.462-.006.928.025,1.386-.011.489-.038.722.08.684.631-.028.4-.1.625-.557.564A5.1,5.1,0,0,0,45.922,24.608Z" transform="translate(39.893 20.928)"/>
            <path id="Path_90" data-name="Path 90" class="cls-2" d="M39.769,25.887c.032.244-.133.282-.269.345-.481.216-.972.413-1.443.648-.456.227-.462-.167-.561-.39s-.417-.489.059-.682c.407-.167.8-.356,1.206-.532A.657.657,0,0,1,39.769,25.887Z" transform="translate(33.345 22.516)"/>
            <path id="Path_91" data-name="Path 91" class="cls-2" d="M39.828,22.608a.723.723,0,0,1-1.108.525q-.378-.264-.756-.532c-.648-.46-.661-.7-.089-1.22.114-.1.2-.152.335-.051.5.36,1,.714,1.506,1.07C39.786,22.449,39.864,22.5,39.828,22.608Z" transform="translate(33.488 19.019)"/>
            <path id="Path_92" data-name="Path 92" class="cls-2" d="M44.832,25.188a11.534,11.534,0,0,1,1.718.729c.335.2-.087.528-.138.8-.044.231-.184.313-.436.2-.4-.182-.814-.328-1.223-.492a.66.66,0,0,1-.193-1.18A.255.255,0,0,1,44.832,25.188Z" transform="translate(39.579 22.503)"/>
            <path id="Path_93" data-name="Path 93" class="cls-2" d="M44.809,23.395a1.927,1.927,0,0,1-.623-.746c-.138-.216.1-.3.231-.392a11.71,11.71,0,0,0,.956-.691c.428-.39.7-.354,1,.155.172.3.241.464-.1.67-.411.25-.788.551-1.182.828C45,23.281,44.907,23.334,44.809,23.395Z" transform="translate(39.462 19.043)"/>
            <path id="Path_94" data-name="Path 94" class="cls-2" d="M38.182,24.609h-.53c-.667,0-.9-.347-.706-.985.066-.214.208-.193.356-.2.464,0,.932.032,1.394-.011.525-.049.684.129.669.653-.013.447-.163.589-.583.542A5.738,5.738,0,0,0,38.182,24.609Z" transform="translate(32.967 20.927)"/>
            <path id="Path_95" data-name="Path 95" class="cls-2" d="M44.8,20.511a10.087,10.087,0,0,1-1,1.684c-.186.216-.564-.2-.85-.337-.246-.116-.072-.3,0-.443.161-.311.333-.617.5-.926.316-.585.8-.648,1.235-.153A1.354,1.354,0,0,1,44.8,20.511Z" transform="translate(38.273 17.881)"/>
            <path id="Path_96" data-name="Path 96" class="cls-2" d="M40.951,21.7c-.174.311-.527.362-.794.525-.235.144-.3-.076-.381-.222a7.943,7.943,0,0,0-.544-.972c-.388-.508-.17-.725.316-.96.348-.169.492-.1.646.214C40.423,20.761,40.688,21.216,40.951,21.7Z" transform="translate(34.894 17.864)"/>
            <path id="Path_97" data-name="Path 97" class="cls-2" d="M42.319,20.742a3.082,3.082,0,0,0,0,.458c.085.528-.233.54-.627.545s-.627-.076-.564-.54a6.7,6.7,0,0,0,.008-.85c0-.72.1-.792.847-.7.252.03.347.129.337.369S42.318,20.5,42.319,20.742Z" transform="translate(36.76 17.542)"/>
            <path id="Path_98" data-name="Path 98" class="cls-2" d="M40.647,29.209h2.9A1.6,1.6,0,0,1,40.647,29.209Z" transform="translate(36.336 26.111)"/>
          </g>
        </g>
      </g>
    </g>
  </g>
</svg>
