<svg xmlns="http://www.w3.org/2000/svg" viewBox="0 0 148 148">
  <defs>
    <style>
      .cls-1 {
        fill: #fff;
      }

      .cls-2 {
        fill: #369;
      }
    </style>
  </defs>
  <g id="Group_23" data-name="Group 23" transform="translate(-4500 -3140)">
    <circle id="Ellipse_5" data-name="Ellipse 5" class="cls-1" cx="74" cy="74" r="74" transform="translate(4500 3140)"/>
    <g id="yuggFY.tif_1_" transform="translate(4529 3185)">
      <g id="Group_9" data-name="Group 9">
        <path id="Path_63" data-name="Path 63" class="cls-2" d="M44.286,0C48.155,1.055,52.03,2.074,55.2,4.767a16.821,16.821,0,0,1,4.246,4.841c-.21.146-.371.28-.551.379-2.686,1.479-4.625,1.064-7.119-1.167C46.989,4.542,41.133,4.057,35.356,6.907a14.959,14.959,0,0,0-8.879,14.07c-.042,3.731-.9,4.411-4.614,3.625a12.872,12.872,0,0,0-13.343,4.8C4.9,33.82,4.144,38.879,6.686,44.085,9.044,48.915,12.939,51.968,18.46,52q28.19.156,56.383.017c7.606-.028,12.663-8.422,8.7-14.983-1.744-2.884-1.67-5.25-.847-8.3a15.16,15.16,0,0,1,6.515,8.176c.258.712.009,1.627.794,2.14v5.714c-.65.369-.57,1.1-.767,1.667-2.341,6.7-7.6,10.718-14.642,10.746q-27.8.108-55.6-.006A18.8,18.8,0,0,1,.551,41.947C.438,41.432.623,40.8,0,40.475V35.714c.549-.239.438-.777.551-1.216C3.045,24.765,9.7,19.405,19.831,19.153c1.517-.038,1.545-.784,1.775-1.833,1.765-8.08,6.58-13.466,14.386-16.225C37.311.631,38.8.869,40,0Z"/>
        <path id="Path_64" data-name="Path 64" class="cls-2" d="M43.022,15.619c-1.9-1.28-2.259-2.975-3.786-3.714-1.617-.782,1.568-.718.347-1.693-.608-.485-1.585-.983-1.4-2.023.089-.489.633-.292,1-.17A4.105,4.105,0,0,1,41.4,10.345c.828,1.508,1.453,3.286,4,1.822,1.369-.786,3-.407,3.96,1.678,4.309,9.381-1.269,21.222-10.949,22.754-.129-1.112.881-1.311,1.409-1.9,1.742-1.93,3.831-3.545,5.2-5.828.606-1.013.443-1.487-.515-2.25-2.4-1.905-4.8-3.443-8.064-3.2-1.455.108-1.924-1.92-3.392-2.138a.953.953,0,0,1-.038-.631,1.027,1.027,0,0,1,1.415-.508c1.142.549,1.519.1,2.123-.9C37.815,17.142,39.793,15.873,43.022,15.619Z" transform="translate(29.475 7.04)"/>
        <path id="Path_65" data-name="Path 65" class="cls-2" d="M27.532,10.678c.691,1.335,1.89.926,2.936.771,2.553-.381,3.869.633,4.1,3.28A6.346,6.346,0,0,0,39.407,20.6a11.857,11.857,0,0,1,3.074,1.688c.354.2.809.506.506.886-1.32,1.655-.153,3.019.528,4.345,1.222,2.371-.472,4.621-.119,6.945.066.443-.568.447-.947.451-1.028.009-2.063.053-3.083-.034-4.905-.417-5.7-1.292-5.7-6.159,0-2.848.015-5.7,0-8.547-.017-2.627-.716-3.3-3.407-3.343-.159,0-.316,0-.475,0-5.246-.023-5.538-.519-3.155-5.415a5.848,5.848,0,0,1,.7-.932C27.4,10.547,27.464,10.614,27.532,10.678Z" transform="translate(22.521 9.369)"/>
        <path id="Path_66" data-name="Path 66" class="cls-2" d="M27.953,14.663c3.807,0,7.617.091,11.42-.03,2.822-.091,2.428,1.777,2.475,3.523.045,1.706.083,3.095-2.383,3.057-7.612-.117-15.229-.087-22.843-.011-1.831.019-2.434-.708-2.256-2.4a7.627,7.627,0,0,0,0-1.663c-.214-1.833.489-2.566,2.4-2.506C20.494,14.744,24.223,14.663,27.953,14.663Zm-8.055,1.8c-.706,0-1.415.025-2.121-.006-.907-.04-1.519.14-1.473,1.269.036.928.278,1.515,1.328,1.5,1.492-.017,2.987-.034,4.479.009,1.063.032,1.313-.5,1.328-1.451.015-1.049-.441-1.394-1.419-1.333C21.314,16.5,20.6,16.466,19.9,16.464Z" transform="translate(12.809 13.074)"/>
        <path id="Path_67" data-name="Path 67" class="cls-2" d="M28.152,25.151c-3.638,0-7.282-.133-10.911.047-2.364.117-3.178-.771-2.862-3a5.75,5.75,0,0,0,0-1.42c-.182-1.7.652-2.169,2.242-2.157,7.67.053,15.343.07,23.013-.009,1.869-.019,2.242.794,2.241,2.436-.006,4.1.051,4.1-4,4.106Q33.015,25.15,28.152,25.151Zm-8.477-2.225c.792,0,1.583-.036,2.373.009,1.009.057,1.4-.36,1.4-1.381,0-1.049-.458-1.4-1.432-1.371-1.5.036-3.006.011-4.508.03-.922.011-1.176.568-1.189,1.407-.013.877.28,1.348,1.22,1.311C18.25,22.9,18.964,22.922,19.674,22.926Z" transform="translate(12.795 16.637)"/>
        <path id="Path_68" data-name="Path 68" class="cls-2" d="M28.139,28.864c-3.8,0-7.61-.068-11.411.03-1.714.045-2.562-.447-2.362-2.269a12.033,12.033,0,0,0,.006-2.138c-.1-1.472.61-1.909,2-1.9q11.767.06,23.538,0c1.491-.009,1.985.634,1.907,2a15.493,15.493,0,0,0,0,2.138c.14,1.689-.665,2.2-2.269,2.167C35.747,28.813,31.942,28.864,28.139,28.864ZM19.757,27V27c.784,0,1.572-.034,2.354.008,1.057.059,1.326-.479,1.328-1.434,0-.972-.316-1.453-1.352-1.422-1.568.044-3.138.023-4.708.015-1.013-.006-1.081.659-1.083,1.426s.1,1.426,1.108,1.4C18.187,26.984,18.973,27,19.757,27Z" transform="translate(12.817 20.187)"/>
        <path id="Path_69" data-name="Path 69" class="cls-2" d="M45.907,7.629c-5.739,2.684-12.095,3.354-18.7,4.218C32.371,6.089,40.882,4.36,45.907,7.629Z" transform="translate(24.321 5.354)"/>
        <path id="Path_70" data-name="Path 70" class="cls-2" d="M37.319,10.346c-1.246.061-1.125,1.8-2.449,1.818-.513.008-1.116-.4-.9-.814a6.528,6.528,0,0,1,1.973-2.581C36.565,8.388,36.906,9.53,37.319,10.346Z" transform="translate(30.329 7.771)"/>
        <path id="Path_71" data-name="Path 71" class="cls-2" d="M26.32,10.585c.163-.208.333-.339.559-.074l-.356.273C26.456,10.719,26.388,10.653,26.32,10.585Z" transform="translate(23.528 9.264)"/>
      </g>
    </g>
  </g>
</svg>
