<svg xmlns="http://www.w3.org/2000/svg" viewBox="0 0 148 148">
  <defs>
    <style>
      .cls-1 {
        fill: #fff;
      }

      .cls-2 {
        fill: #369;
      }
    </style>
  </defs>
  <g id="Group_20" data-name="Group 20" transform="translate(-4500 -2403)">
    <circle id="Ellipse_9" data-name="Ellipse 9" class="cls-1" cx="74" cy="74" r="74" transform="translate(4500 2403)"/>
    <g id="Group_17" data-name="Group 17" transform="translate(4529 2428)">
      <path id="Path_27" data-name="Path 27" class="cls-2" d="M0,15.32a8.347,8.347,0,0,1,1.527-2.813A5.694,5.694,0,0,1,8.6,11.57a5.461,5.461,0,0,1,2.387,6.52,5.644,5.644,0,0,1-6.018,3.69,5.506,5.506,0,0,1-4.7-3.871c-.076-.223-.051-.5-.264-.668Zm9.069,1.158a3.621,3.621,0,0,0-3.5-3.662,3.614,3.614,0,0,0-.088,7.227A3.6,3.6,0,0,0,9.069,16.478Z" transform="translate(0 11.275)"/>
      <path id="Path_28" data-name="Path 28" class="cls-2" d="M25.642,0a9.523,9.523,0,0,1,2.672,1.354,5.54,5.54,0,0,1-7.1,8.508A5.258,5.258,0,0,1,19.174,4.7,5.419,5.419,0,0,1,23.1.236c.2-.064.457-.029.6-.236Zm2.524,5.436a3.64,3.64,0,0,0-7.28-.08,3.641,3.641,0,0,0,7.28.08Z" transform="translate(20.028)"/>
      <path id="Path_29" data-name="Path 29" class="cls-2" d="M24.137,53.9c-.143-.244-.41-.24-.639-.311a5.658,5.658,0,1,1,3.67,0,1.684,1.684,0,0,0-.8.311Zm1.252-1.481a3.763,3.763,0,1,0-3.774-3.776A3.812,3.812,0,0,0,25.389,52.414Z" transform="translate(20.64 44.953)"/>
      <path id="Path_30" data-name="Path 30" class="cls-2" d="M14.372,51.009a1.411,1.411,0,0,1,.387-.934c.969-1.248,1.922-2.506,2.912-3.738a.831.831,0,0,0,.088-1.049,14.237,14.237,0,0,1-.852-2.043.87.87,0,0,0-.811-.7c-1.643-.221-3.283-.482-4.924-.723-1.07-.156-1.367-.479-1.369-1.545q-.006-3.286,0-6.573c0-.963.338-1.35,1.272-1.494,1.664-.254,3.328-.514,5-.742a.92.92,0,0,0,.881-.719,12.018,12.018,0,0,1,.813-1.9.723.723,0,0,0-.09-.92c-1.02-1.268-2.014-2.559-3.024-3.838-.588-.746-.633-1.115-.043-1.838A34.324,34.324,0,0,1,19.68,17.18c.951-.764,1.311-.725,2.293.035,1.231.953,2.473,1.893,3.69,2.865a.729.729,0,0,0,.922.1,13.171,13.171,0,0,1,1.916-.8.845.845,0,0,0,.648-.844,40.475,40.475,0,0,1,.832-5.17c.209-.861.51-1.1,1.4-1.1q3.384-.009,6.768,0c.959,0,1.293.285,1.445,1.211.277,1.7.566,3.4.8,5.1a.874.874,0,0,0,.693.811,16.2,16.2,0,0,1,1.852.76.779.779,0,0,0,.936-.115C45.23,19,46.6,17.981,47.969,16.965a1.191,1.191,0,0,1,1.74.057,54.267,54.267,0,0,1,4.959,4.99c.75.9.75,1.3.047,2.217-.932,1.213-1.865,2.428-2.824,3.621a.789.789,0,0,0-.092.988,14.336,14.336,0,0,1,.852,2.043.935.935,0,0,0,.887.715c1.641.236,3.279.506,4.92.754,1,.152,1.318.492,1.32,1.512q.009,3.286,0,6.573c0,1.025-.359,1.385-1.4,1.535-1.666.24-3.328.51-5,.75a.813.813,0,0,0-.742.6,16.679,16.679,0,0,1-.832,1.973.739.739,0,0,0,.109.924c1,1.252,1.986,2.518,2.977,3.781.656.834.67,1.2-.006,2.016a36.633,36.633,0,0,1-4.856,4.875c-1.063.883-1.457.857-2.533.012-1.186-.932-2.391-1.84-3.565-2.785a.793.793,0,0,0-.99-.094,12.343,12.343,0,0,1-1.852.76.828.828,0,0,0-.664.83,44.312,44.312,0,0,1-.789,5.028c-.234,1.047-.516,1.266-1.574,1.268q-3.273,0-6.545,0c-1.1,0-1.383-.244-1.561-1.336-.27-1.652-.553-3.3-.777-4.959a.854.854,0,0,0-.742-.85,2.327,2.327,0,0,1-.83-.316c-1.084-.762-1.945-.453-2.856.375s-1.951,1.514-2.938,2.26c-.857.648-1.322.639-2.088-.082a51.88,51.88,0,0,1-4.914-4.928A1.575,1.575,0,0,1,14.372,51.009ZM48.627,37.023A13.833,13.833,0,1,0,34.8,50.822,13.847,13.847,0,0,0,48.627,37.023Z" transform="translate(10.28 12.859)"/>
      <path id="Path_31" data-name="Path 31" class="cls-2" d="M6.337,36.357c.166.092.3.16.424.234Q19.726,44.167,32.7,51.737c.436.254.668.475.268.938a1.924,1.924,0,0,0-.3.51c-.223.537-.527.5-.977.232-3.063-1.813-6.137-3.606-9.211-5.4C17,44.807,11.517,41.59,6.017,38.41c-.6-.348-.719-.639-.3-1.164C5.948,36.968,6.036,36.586,6.337,36.357Z" transform="translate(5.738 38.142)"/>
      <path id="Path_32" data-name="Path 32" class="cls-2" d="M25.966,2.667c.227.127.357.2.486.27q12.965,7.576,25.935,15.145c.451.262.645.494.256.943a1.45,1.45,0,0,0-.217.385c-.244.584-.545.65-1.125.309Q38.45,12.168,25.567,4.671c-.506-.3-.543-.533-.232-.965C25.571,3.378,25.757,3.013,25.966,2.667Z" transform="translate(26.37 2.798)"/>
      <path id="Path_33" data-name="Path 33" class="cls-2" d="M44.084,10.6a5.648,5.648,0,0,1,5.627,5.588A5.655,5.655,0,0,1,38.4,16.137,5.652,5.652,0,0,1,44.084,10.6Zm3.688,5.78A3.566,3.566,0,1,0,44.215,19.9,3.6,3.6,0,0,0,47.772,16.38Z" transform="translate(40.289 11.12)"/>
      <path id="Path_34" data-name="Path 34" class="cls-2" d="M52.14,38.115c0,.377-.332.424-.543.547q-3.685,2.145-7.385,4.266Q35.6,47.889,27,52.866c-.607.352-.9.369-1.223-.307-.465-.955-.516-.938.451-1.5Q38.5,43.991,50.771,36.914c.373-.215.592-.262.787.186A10.251,10.251,0,0,0,52.14,38.115Z" transform="translate(26.703 38.56)"/>
      <path id="Path_35" data-name="Path 35" class="cls-2" d="M6.51,19.859c-.225.012-.291-.133-.367-.258a5.471,5.471,0,0,0-.371-.639c-.385-.482-.3-.754.258-1.066,2.524-1.414,5.02-2.873,7.528-4.315q8.612-4.958,17.218-9.928c.482-.279.711-.3,1,.24.578,1.072.615,1.055-.432,1.66Q19.139,12.594,6.932,19.634C6.782,19.718,6.629,19.794,6.51,19.859Z" transform="translate(5.809 3.631)"/>
      <path id="Path_36" data-name="Path 36" class="cls-2" d="M49.633,37.974a5.578,5.578,0,1,1-5.539-5.67A5.638,5.638,0,0,1,49.633,37.974Zm-5.725,3.783a3.543,3.543,0,1,0-3.641-3.52A3.611,3.611,0,0,0,43.908,41.756Z" transform="translate(40.367 33.89)"/>
      <path id="Path_37" data-name="Path 37" class="cls-2" d="M40.743,31.274c0-4.531.014-9.061-.014-13.592,0-.662.148-.963.848-.85a3.164,3.164,0,0,0,.668,0c.316-.016.461.115.434.432-.01.123,0,.246,0,.369q0,13.665-.008,27.329c0,.254.191.684-.234.736a2.945,2.945,0,0,1-1.6-.07c-.211-.1-.09-.457-.09-.695Q40.737,38.107,40.743,31.274Z" transform="translate(42.711 17.634)"/>
      <path id="Path_38" data-name="Path 38" class="cls-2" d="M4.266,31.849c0,4.531-.014,9.061.016,13.59,0,.654-.164.908-.822.8a2.8,2.8,0,0,0-.668,0c-.361.029-.5-.131-.463-.475.014-.145,0-.3,0-.443q0-13.555-.016-27.107c0-.713.172-.934.9-.891C4.444,17.4,4.264,17.2,4.266,18.4Q4.272,25.127,4.266,31.849Z" transform="translate(2.429 18.168)"/>
      <path id="Path_39" data-name="Path 39" class="cls-2" d="M.145,37.8A5.627,5.627,0,0,1,5.7,32.232a5.541,5.541,0,1,1,.049,11.081A5.614,5.614,0,0,1,.145,37.8Zm9.368.15a3.64,3.64,0,1,0-3.666,3.586A3.64,3.64,0,0,0,9.513,37.951Z" transform="translate(0.152 33.814)"/>
      <path id="Path_40" data-name="Path 40" class="cls-2" d="M33.914,30.3c.119.059.232.113.34.17,3,1.563,5.994,3.133,9,4.678.43.221.412.422.219.8-.611,1.18-.6,1.191-1.77.582-2.586-1.34-5.176-2.674-7.754-4.031-1.3-.686-1.15-.359-.486-1.678C33.565,30.625,33.6,30.33,33.914,30.3Z" transform="translate(34.583 31.79)"/>
      <path id="Path_41" data-name="Path 41" class="cls-2" d="M33.974,20.676c-.176.031-.217-.1-.287-.2-.8-1.129-.717-1.459.541-2.035,2.49-1.139,4.985-2.264,7.469-3.42.441-.2.662-.219.885.285.529,1.191.559,1.182-.609,1.717q-3.8,1.74-7.608,3.471Z" transform="translate(34.795 15.622)"/>
      <path id="Path_42" data-name="Path 42" class="cls-2" d="M6.776,14.814c.117.061.25.129.379.2,2.623,1.473,5.242,2.957,7.877,4.41.441.242.463.445.225.852-.654,1.121-.641,1.139-1.785.5-2.412-1.346-4.811-2.717-7.233-4.043-.477-.26-.525-.5-.236-.9.17-.24.3-.51.449-.762C6.524,14.953,6.559,14.781,6.776,14.814Z" transform="translate(6.11 15.537)"/>
      <path id="Path_43" data-name="Path 43" class="cls-2" d="M21.355,11.136c0-1.424.023-2.848-.012-4.272-.012-.531.1-.734.686-.719,1.248.029,1.242,0,1.254,1.25.025,2.7.035,5.4.1,8.1.014.662-.193.9-.84.8a2.2,2.2,0,0,0-.592,0c-.471.057-.586-.158-.58-.594.02-1.522.008-3.045.008-4.565Z" transform="translate(22.389 6.445)"/>
      <path id="Path_44" data-name="Path 44" class="cls-2" d="M21.613,42.423c0-1.525.018-3.049-.01-4.574-.01-.5.16-.625.637-.625,1.305,0,1.313-.02,1.3,1.305-.033,2.631-.092,5.264-.1,7.9,0,.541-.191.65-.688.643-1.254-.014-1.254.006-1.254-1.252v-3.4C21.533,42.423,21.574,42.423,21.613,42.423Z" transform="translate(22.547 39.051)"/>
      <path id="Path_45" data-name="Path 45" class="cls-2" d="M7.154,36.535c-.227.072-.26-.109-.34-.221-.9-1.285-.891-1.311.492-2.063,2.149-1.17,4.305-2.328,6.44-3.52.457-.254.68-.275.943.256.57,1.147.6,1.125-.518,1.734q-3.292,1.786-6.578,3.58Z" transform="translate(6.499 32.056)"/>
      <path id="Path_46" data-name="Path 46" class="cls-2" d="M6.057,14.674a2.274,2.274,0,0,1-2.2,2.305A2.289,2.289,0,0,1,3.807,12.4,2.294,2.294,0,0,1,6.057,14.674Z" transform="translate(1.676 13.013)"/>
      <path id="Path_47" data-name="Path 47" class="cls-2" d="M22.932,1.516a2.327,2.327,0,0,1,2.293,2.315,2.3,2.3,0,0,1-4.606-.014A2.341,2.341,0,0,1,22.932,1.516Z" transform="translate(21.631 1.59)"/>
      <path id="Path_48" data-name="Path 48" class="cls-2" d="M23.7,49.363a2.436,2.436,0,1,1,2.481-2.416A2.46,2.46,0,0,1,23.7,49.363Z" transform="translate(22.317 46.676)"/>
      <path id="Path_49" data-name="Path 49" class="cls-2" d="M28.659,43.882A12.928,12.928,0,1,1,41.564,30.944,12.96,12.96,0,0,1,28.659,43.882Zm-.023-21.12a8.271,8.271,0,1,0,8.313,8.262A8.251,8.251,0,0,0,28.636,22.762Z" transform="translate(16.452 18.912)"/>
      <path id="Path_50" data-name="Path 50" class="cls-2" d="M42.41,16.76a2.214,2.214,0,1,1,2.2-2.217A2.213,2.213,0,0,1,42.41,16.76Z" transform="translate(42.119 12.937)"/>
      <path id="Path_51" data-name="Path 51" class="cls-2" d="M42.3,34.108a2.3,2.3,0,0,1,2.309,2.211,2.275,2.275,0,0,1-2.291,2.217,2.216,2.216,0,1,1-.018-4.428Z" transform="translate(41.968 35.782)"/>
      <path id="Path_52" data-name="Path 52" class="cls-2" d="M4.111,38.468A2.288,2.288,0,1,1,4.1,33.892a2.288,2.288,0,1,1,.014,4.576Z" transform="translate(1.905 35.556)"/>
    </g>
  </g>
</svg>
