<svg xmlns="http://www.w3.org/2000/svg" viewBox="0 0 148 148">
  <defs>
    <style>
      .cls-1 {
        fill: #fff;
      }

      .cls-2 {
        fill: #369;
      }
    </style>
  </defs>
  <g id="Group_24" data-name="Group 24" transform="translate(-1071 -1787)">
    <circle id="Ellipse_5" data-name="Ellipse 5" class="cls-1" cx="74" cy="74" r="74" transform="translate(1071 1787)"/>
    <g id="Group_23" data-name="Group 23" transform="translate(1100 1826)">
      <path id="Path_105" data-name="Path 105" class="cls-2" d="M0,49.454V3.722c.351-.574.492-1.245.9-1.8A5.647,5.647,0,0,1,3.855,0h74.18c.029.031.054.083.088.09,2.326.478,3.81,2.523,3.782,5.215-.073,6.845-.016,13.691-.038,20.537,0,.623.182.776.777.759,1.306-.037,2.613,0,3.92.007,2.3.007,3.435,1.138,3.435,3.427q0,17.845,0,35.691c0,2.26-1.134,3.4-3.381,3.4H70.069c-2.34,0-3.465-1.122-3.466-3.458,0-3.921-.007-7.843.008-11.764,0-.476-.066-.707-.635-.7-4.386.023-8.773.012-13.16.016-.167,0-.4-.085-.486.1s.106.318.2.46q2.071,3.25,4.15,6.494c.68,1.063,1.356,2.13,2.045,3.187.222.34.218.521-.253.484-.132-.01-.266,0-.4,0H23.841a1.846,1.846,0,0,1-.266,0c-.185-.027-.436.1-.54-.11-.082-.168.11-.317.2-.461.389-.618.787-1.232,1.181-1.847q2.472-3.86,4.942-7.722c.093-.146.252-.347.211-.46-.081-.221-.347-.117-.535-.122-.465-.013-.93,0-1.4,0q-11.332,0-22.664.006a5,5,0,0,1-3.425-1.19A6.353,6.353,0,0,1,0,49.454ZM41.114,3.333q-18.21,0-36.421-.014c-.635,0-.814.161-.813.8q.027,22.5,0,44.994c0,.623.186.769.784.768q30.606-.022,61.211,0c.572,0,.745-.131.743-.729-.023-6.38-.016-12.761-.014-19.141,0-2.24,1.16-3.4,3.4-3.406,2.525-.008,5.051-.032,7.576-.007.574.006.742-.127.74-.727q-.034-10.866,0-21.733c0-.7-.205-.825-.852-.824Q59.291,3.347,41.114,3.333ZM89.345,48.368q0-8.437,0-16.874c0-2.2-1.054-3.253-3.255-3.272a3.054,3.054,0,0,1-.531,0,2.444,2.444,0,0,0-2.974,1.532.713.713,0,0,1-.738.436c-2.236-.017-4.473-.013-6.71,0-.3,0-.541-.062-.657-.337a2.7,2.7,0,0,0-3.32-1.629,4.345,4.345,0,0,1-.664.005c-2.219.013-3.287,1.08-3.3,3.315-.009,1.86,0,3.72,0,5.58q0,14.018,0,28.035c0,2.269,1.046,3.319,3.265,3.32q7.839,0,15.679,0c2.152,0,3.2-1.062,3.2-3.23Q89.346,56.806,89.345,48.368Z"/>
      <path id="Path_106" data-name="Path 106" class="cls-2" d="M103.261,37.733a3.724,3.724,0,0,0-1.521,2.36c-.034.206-.166.234-.331.235l-.332,0c-1.489.014-1.491.014-1.491,1.473q0,12.322,0,24.644c0,.992-.129.861.9.863q5.447.009,10.894,0h.735c-.255.715-.488,1.354-.71,2-.124.358-.42.262-.669.262q-5.414.005-10.827,0c-.443,0-.886.012-1.328,0a1.574,1.574,0,0,1-1.63-1.639c-.016-.8,0-1.594,0-2.391q0-12.887,0-25.774c0-1.5.539-2.036,2.038-2.035Z" transform="translate(-70.094 -27.283)"/>
      <path id="Path_107" data-name="Path 107" class="cls-2" d="M126.54,29.394c-2.414,0-4.829-.011-7.243.009-.483,0-.622-.123-.511-.608a2.314,2.314,0,0,1,.955-1.461,1.772,1.772,0,0,1,.4-.241,7.1,7.1,0,0,0,4-3.627,2.683,2.683,0,0,1,4.941.01,7.29,7.29,0,0,0,4,3.63,2.177,2.177,0,0,1,1.355,1.691c.106.5-.042.611-.516.607-2.148-.019-4.3-.009-6.446-.01Zm1.122-4.386a1.06,1.06,0,0,0-2.118-.093,1.06,1.06,0,1,0,2.118.093Z" transform="translate(-85.862 -15.788)"/>
      <path id="Path_108" data-name="Path 108" class="cls-2" d="M174.641,37.755c1.721,0,3.289-.037,4.855.014.883.029,1.412.752,1.413,1.768q.007,5.182,0,10.363c0,1.329-.015,2.658.009,3.986a1.152,1.152,0,0,1-.392.926c-.713.692-1.4,1.412-2.105,2.133-.248-.269-.148-.522-.148-.747-.007-5.049-.017-10.1.009-15.147,0-.6-.164-.814-.739-.715a.731.731,0,0,1-.133,0,3.119,3.119,0,0,1-1.116-.044c-.348-.149-.264-.652-.409-.986A4.566,4.566,0,0,0,174.641,37.755Z" transform="translate(-126.273 -27.289)"/>
      <path id="Path_109" data-name="Path 109" class="cls-2" d="M136.593,75.973c-.114.125-.2.225-.291.317q-4.159,4.155-8.315,8.313c-.248.248-.388.238-.628-.006q-1.887-1.918-3.808-3.8c-.3-.293-.283-.462.012-.731.507-.462.991-.951,1.458-1.454.239-.258.394-.255.633,0,.515.548,1.083,1.048,1.584,1.608.323.362.511.378.869.012,1.969-2.007,3.98-3.974,5.952-5.979.347-.353.548-.388.881,0,.419.484.9.914,1.353,1.37C136.4,75.726,136.487,75.848,136.593,75.973Z" transform="translate(-89.175 -53.487)"/>
      <path id="Path_110" data-name="Path 110" class="cls-2" d="M185.356,136.115c0,1.073.042,2.167-.016,3.256a1.388,1.388,0,0,1-1.238,1.289c-1.109.063-2.224.017-3.283.017Z" transform="translate(-130.741 -98.417)"/>
      <g id="Group_21" data-name="Group 21" transform="translate(42.932 22.836)">
        <path id="Path_111" data-name="Path 111" class="cls-2" d="M171.1,92.5l-15.067,14.313-1.018,3.692,3.746-.82L173.9,95.3Zm-14.7,17.056-.432-.461.543-1.75,1.678,1.75Z" transform="translate(-155.013 -89.716)"/>
        <path id="Path_112" data-name="Path 112" class="cls-2" d="M220.832,83.216l-.179-.188a1.851,1.851,0,0,0-2.617-.067L216.623,84.3l2.8,2.8,1.34-1.273A1.851,1.851,0,0,0,220.832,83.216Z" transform="translate(-199.56 -82.452)"/>
      </g>
      <path id="Path_113" data-name="Path 113" class="cls-2" d="M262.053,154.3a1.246,1.246,0,0,0-.509.789c-.011.069-.056.078-.111.079h-.111c-.5,0-.5,0-.5.492q0,4.121,0,8.241c0,.332-.043.288.3.289q1.822,0,3.643,0h.246c-.085.239-.163.453-.237.668-.041.12-.14.088-.223.088h-3.621c-.148,0-.3,0-.444,0a.526.526,0,0,1-.545-.548c-.005-.266,0-.533,0-.8v-8.619c0-.5.18-.681.682-.68Z" transform="translate(-187.948 -111.568)"/>
      <path id="Path_114" data-name="Path 114" class="cls-2" d="M269.838,151.515c-.807,0-1.615,0-2.422,0-.161,0-.208-.041-.171-.2a.774.774,0,0,1,.319-.489.6.6,0,0,1,.132-.081,2.373,2.373,0,0,0,1.337-1.213.9.9,0,0,1,1.652,0,2.438,2.438,0,0,0,1.337,1.214.729.729,0,0,1,.453.566c.035.167-.014.2-.173.2-.718-.006-1.437,0-2.156,0Zm.375-1.467a.355.355,0,0,0-.708-.031.355.355,0,1,0,.708.031Z" transform="translate(-193.22 -107.724)"/>
      <path id="Path_115" data-name="Path 115" class="cls-2" d="M285.924,154.31c.576,0,1.1-.012,1.624,0,.3.01.472.251.473.591q0,1.733,0,3.466c0,.444,0,.889,0,1.333a.385.385,0,0,1-.131.31c-.238.231-.467.472-.7.713-.083-.09-.05-.174-.05-.25,0-1.688-.006-3.377,0-5.065,0-.2-.055-.272-.247-.239a.237.237,0,0,1-.044,0,1.041,1.041,0,0,1-.373-.015c-.116-.05-.088-.218-.137-.33A1.532,1.532,0,0,0,285.924,154.31Z" transform="translate(-206.735 -111.57)"/>
      <path id="Path_116" data-name="Path 116" class="cls-2" d="M273.2,167.091c-.038.042-.066.075-.1.106q-1.391,1.389-2.781,2.78c-.083.083-.13.079-.21,0-.421-.428-.844-.853-1.274-1.271-.1-.1-.094-.155,0-.245.169-.155.331-.318.487-.486.08-.086.132-.085.212,0,.172.183.362.351.53.538.108.121.171.126.291,0,.659-.671,1.331-1.329,1.99-2,.116-.118.183-.13.294,0,.14.162.3.305.452.458C273.134,167.008,273.164,167.049,273.2,167.091Z" transform="translate(-194.328 -120.331)"/>
      <path id="Path_117" data-name="Path 117" class="cls-2" d="M289.507,187.2c0,.359.014.725-.005,1.089a.464.464,0,0,1-.414.431c-.371.021-.744.006-1.1.006Z" transform="translate(-208.229 -135.356)"/>
      <g id="Group_22" data-name="Group 22" transform="translate(77.371 46.877)">
        <path id="Path_118" data-name="Path 118" class="cls-2" d="M284.74,172.617,279.7,177.4l-.34,1.235,1.253-.274,5.063-4.81Zm-4.916,5.7-.144-.154.182-.585.561.585Z" transform="translate(-279.361 -171.687)"/>
        <path id="Path_119" data-name="Path 119" class="cls-2" d="M301.37,169.513l-.06-.063a.619.619,0,0,0-.875-.022l-.473.449.937.937.448-.426A.619.619,0,0,0,301.37,169.513Z" transform="translate(-294.256 -169.257)"/>
      </g>
    </g>
  </g>
</svg>
