<svg xmlns="http://www.w3.org/2000/svg" viewBox="0 0 148 148">
  <defs>
    <style>
      .cls-1 {
        fill: #fff;
      }

      .cls-2 {
        fill: #369;
      }
    </style>
  </defs>
  <g id="Group_21" data-name="Group 21" transform="translate(-4500 -2630)">
    <circle id="Ellipse_7" data-name="Ellipse 7" class="cls-1" cx="74" cy="74" r="74" transform="translate(4500 2630)"/>
    <g id="Group_18" data-name="Group 18" transform="translate(4529 2670)">
      <path id="Path_99" data-name="Path 99" class="cls-2" d="M87.608,68.794H68.864c-1.83-.7-2.322-2.091-2.284-3.93.08-3.739.011-7.481.036-11.222,0-.551-.15-.7-.7-.7-4.3.023-8.595.011-12.894.017-.2,0-.489-.123-.6.116-.087.182.131.354.233.515q2.969,4.693,5.943,9.383c.121.191.341.354.278.633H23.023c2.263-3.568,4.477-7.059,6.758-10.65H5.083a5.837,5.837,0,0,1-1.517-.127A4.67,4.67,0,0,1,0,47.97V5.125C0,1.9,1.917,0,5.167,0H76.678c3.3,0,5.2,1.883,5.2,5.153,0,6.866.008,13.731-.013,20.6,0,.614.176.78.778.765,1.483-.04,2.968-.032,4.453,0a2.821,2.821,0,0,1,2.75,2c.036.1.023.222.152.269v37.5A3.206,3.206,0,0,1,87.608,68.794ZM41.078,3.322q-18.207,0-36.417-.013c-.606,0-.782.157-.78.767q.026,22.409,0,44.816c0,.6.159.767.771.767q30.6-.026,61.2,0c.616,0,.763-.17.761-.765-.021-6.314-.013-12.629-.013-18.943,0-2.347,1.1-3.449,3.439-3.451,2.5,0,5.006-.021,7.509.013.625.009.763-.186.763-.777C78.3,18.564,78.3,11.392,78.3,4.22c0-1.006.127-.9-.939-.9ZM89.345,48.165q0-8.415,0-16.831c0-2.187-1.045-3.222-3.258-3.229a2.528,2.528,0,0,1-.464,0,2.481,2.481,0,0,0-3.013,1.553c-.18.405-.513.466-.926.46-1.706-.019-3.42-.112-5.114.025a2.551,2.551,0,0,1-2.915-1.521.879.879,0,0,0-.96-.523c-.752.04-1.506.008-2.259.011-2.155.008-3.212,1.045-3.235,3.2-.015,1.519,0,3.036,0,4.555q0,14.489,0,28.977c0,2.259,1.044,3.3,3.261,3.3q7.841,0,15.684,0c2.153,0,3.2-1.053,3.2-3.212Q89.347,56.545,89.345,48.165Z"/>
      <path id="Path_100" data-name="Path 100" class="cls-2" d="M20.054,31.024a1.162,1.162,0,0,1,.318-.706c.608-.784,1.208-1.576,1.831-2.348a.59.59,0,0,0,.068-.824.264.264,0,0,1-.055-.119c-.244-1.417-1.2-1.856-2.521-1.881-.616-.011-1.225-.174-1.841-.248a.82.82,0,0,1-.818-.922q.009-2.244,0-4.489a.863.863,0,0,1,.852-.97c1.1-.15,2.188-.341,3.286-.487.33-.044.53-.155.6-.491a1.284,1.284,0,0,1,.193-.489,1.483,1.483,0,0,0-.263-2.131c-.528-.561-.962-1.206-1.462-1.8a.858.858,0,0,1-.006-1.242A25.454,25.454,0,0,1,23.6,8.517a1.03,1.03,0,0,1,1.483.017c.784.644,1.614,1.237,2.405,1.875.263.21.468.155.773.089a2.112,2.112,0,0,0,1.809-2.36,13.191,13.191,0,0,1,.335-2.081.846.846,0,0,1,.964-.78q2.227.028,4.453,0a.879.879,0,0,1,1.021.867c.14,1.047.328,2.087.46,3.134.053.422.273.587.634.8A2,2,0,0,0,40.673,9.7a15.924,15.924,0,0,1,1.684-1.286.842.842,0,0,1,1.2.042,40.828,40.828,0,0,1,3.275,3.278,1.031,1.031,0,0,1,.017,1.523c-.619.746-1.187,1.536-1.8,2.29-.227.278-.161.5-.093.83.309,1.481,1.277,1.972,2.682,1.992a14.994,14.994,0,0,1,1.839.267.775.775,0,0,1,.739.852q.006,2.31,0,4.621c0,.564-.318.818-.86.892-1.1.152-2.187.343-3.284.489-.331.044-.447.222-.617.481a2.12,2.12,0,0,0,.445,3.044,13.533,13.533,0,0,1,1.133,1.379.838.838,0,0,1,.025,1.191A25.488,25.488,0,0,1,43.649,35a1.039,1.039,0,0,1-1.489-.008c-.769-.629-1.572-1.218-2.347-1.841a.813.813,0,0,0-.828-.133,2.07,2.07,0,0,0-1.794,2.3,11.745,11.745,0,0,1-.345,2.146.849.849,0,0,1-.968.777q-2.227-.026-4.453,0a.879.879,0,0,1-1.015-.873c-.136-1.047-.326-2.087-.462-3.133-.055-.42-.277-.583-.636-.8a1.991,1.991,0,0,0-2.729.39,14.843,14.843,0,0,1-1.678,1.294A.817.817,0,0,1,23.76,35.1a35.966,35.966,0,0,1-3.333-3.313A1.193,1.193,0,0,1,20.054,31.024ZM33.639,16.27a5.488,5.488,0,1,0,5.511,5.5A5.453,5.453,0,0,0,33.639,16.27Z" transform="translate(15.23 4.716)"/>
      <path id="Path_101" data-name="Path 101" class="cls-2" d="M9.572,7.9c.614,1.053,1.218,2.051,1.778,3.076a.862.862,0,0,0,.879.521c1.667-.015,2.051-.271,2.636-1.814a.559.559,0,0,0-.112-.542c-.509-.9-1-1.816-1.549-2.693-.322-.511-.152-.631.356-.65A4.7,4.7,0,0,1,18.2,8.163a4.378,4.378,0,0,1-.557,5.341,4.927,4.927,0,0,0-1.212,3.663c.038,5.566.015,11.134.015,16.7a2.518,2.518,0,0,1-.4,1.633,1.859,1.859,0,0,1-1.93.742A1.808,1.808,0,0,1,12.639,34.9a3.787,3.787,0,0,1-.108-1.112c0-5.193-.028-10.386.021-15.578a2.855,2.855,0,0,0-1.759-2.972A4.585,4.585,0,0,1,9.572,7.9Z" transform="translate(7.376 5.18)"/>
      <path id="Path_102" data-name="Path 102" class="cls-2" d="M43.677,31.1c-.3.034-.532.326-.8.54-.322.259-.574.267-.837-.059a4.432,4.432,0,0,0-.328-.326c-.826-.826-.867-.754-.146-1.638a.66.66,0,0,0-.449-1.136c-1.11-.178-1.11-.178-1.11-1.267,0-.956,0-.956.994-1.1.752-.112.973-.549.568-1.119-.665-.934-.648-.917.21-1.771.441-.439.831-.621,1.309-.083a1.524,1.524,0,0,0,.316.239.6.6,0,0,0,.939-.39c.311-1.239.313-1.216,1.578-1.242.515-.011.8.117.809.663a2.894,2.894,0,0,0,.059.456.627.627,0,0,0,1.045.466c.977-.648.953-.621,1.831.193.5.46.528.8.078,1.314-.6.684-.4,1.182.528,1.284.7.076.975.331.922,1.076-.076,1.085-.019,1.089-1.153,1.313-.625.123-.78.564-.43,1.106.191.3.706.521.5.909a3.063,3.063,0,0,1-1.3,1.284c-.3.153-.487-.208-.722-.347-.267-.157-.439-.475-.866-.311-.447.172-.42.527-.441.858-.038.6-.25.962-.932.841a1.936,1.936,0,0,0-.331,0c-.977,0-1,0-1.108-.981A.742.742,0,0,0,43.677,31.1Zm3.771-3.788a1.855,1.855,0,1,0-1.867,1.831A1.837,1.837,0,0,0,47.448,27.315Z" transform="translate(35.767 19.439)"/>
      <path id="Path_103" data-name="Path 103" class="cls-2" d="M37.821,22.654c.2.341.394.612.538.907a.611.611,0,0,0,.9.25.621.621,0,0,0,.286-.934c-.187-.288-.345-.6-.545-.949a1.686,1.686,0,0,1,1.85.777,1.5,1.5,0,0,1-.157,1.845,1.9,1.9,0,0,0-.447,1.386c.017,1.892,0,3.784.009,5.676a.878.878,0,0,1-.413.9c-.483.248-.962-.119-.968-.773-.015-1.606-.027-3.212,0-4.816.013-.8-.019-1.449-.883-1.92C37.162,24.542,37.151,23.551,37.821,22.654Z" transform="translate(33.382 19.579)"/>
    </g>
  </g>
</svg>
